<svg width="154" height="44" viewBox="0 0 154 44" fill="none" xmlns="http://www.w3.org/2000/svg">
<g clip-path="url(#clip0_301_6)">
<path d="M45.584 29.448H46.784C47.424 29.448 47.872 29.32 48.128 29.064C48.416 28.776 48.56 28.312 48.56 27.672V15.288C48.56 14.68 48.416 14.248 48.128 13.992C47.872 13.704 47.424 13.56 46.784 13.56H45.824V9.96H51.824L52.16 13.224C53.024 11.88 54.096 10.888 55.376 10.248C56.688 9.576 58.272 9.24 60.128 9.24C61.536 9.24 62.752 9.56 63.776 10.2C64.8 10.84 65.568 11.752 66.08 12.936C66.88 11.656 67.856 10.728 69.008 10.152C70.192 9.544 71.664 9.24 73.424 9.24C76.048 9.24 77.936 9.896 79.088 11.208C80.272 12.52 80.864 14.488 80.864 17.112V27.672C80.864 28.28 81.008 28.728 81.296 29.016C81.584 29.304 82.032 29.448 82.64 29.448H83.984V33H75.824V17.112C75.824 15.512 75.52 14.376 74.912 13.704C74.304 13.032 73.28 12.696 71.84 12.696C70.368 12.696 69.2 13.112 68.336 13.944C67.504 14.776 67.088 15.992 67.088 17.592V27.672C67.088 28.312 67.2 28.776 67.424 29.064C67.68 29.32 68.112 29.448 68.72 29.448H70.016V33H62.336V17.256C62.336 15.688 62.032 14.536 61.424 13.8C60.816 13.064 59.856 12.696 58.544 12.696C56.944 12.696 55.712 13.144 54.848 14.04C53.984 14.936 53.552 16.248 53.552 17.976V27.672C53.552 28.312 53.664 28.776 53.888 29.064C54.144 29.32 54.576 29.448 55.184 29.448H56.48V33H45.584V29.448ZM89.2374 1.896H94.6614V6.312H89.2374V1.896ZM86.2134 29.448H87.6054C88.2454 29.448 88.6934 29.304 88.9494 29.016C89.2374 28.728 89.3814 28.264 89.3814 27.624V15.288C89.3814 14.68 89.2374 14.248 88.9494 13.992C88.6934 13.704 88.2454 13.56 87.6054 13.56H86.2134V9.96H94.5174V27.672C94.5174 28.28 94.6614 28.728 94.9494 29.016C95.2374 29.304 95.6854 29.448 96.2934 29.448H97.6854V33H86.2134V29.448ZM99.9009 39.528H100.717C101.453 39.528 101.949 39.352 102.205 39C102.493 38.68 102.637 38.136 102.637 37.368V15.24C102.637 14.6 102.493 14.136 102.205 13.848C101.949 13.528 101.517 13.368 100.909 13.368H99.9009V9.96H106.525L107.005 13.416C108.925 10.632 111.661 9.24 115.213 9.24C118.413 9.24 120.909 10.28 122.701 12.36C124.525 14.44 125.437 17.4 125.437 21.24C125.437 25.208 124.557 28.28 122.797 30.456C121.037 32.632 118.525 33.72 115.261 33.72C113.533 33.72 112.077 33.464 110.893 32.952C109.741 32.44 108.637 31.56 107.581 30.312V37.368C107.581 38.136 107.709 38.68 107.965 39C108.253 39.352 108.765 39.528 109.501 39.528H110.317V42.984H99.9009V39.528ZM114.013 29.976C116.285 29.976 117.917 29.304 118.909 27.96C119.933 26.584 120.445 24.36 120.445 21.288C120.445 18.312 119.965 16.184 119.005 14.904C118.045 13.592 116.445 12.936 114.205 12.936C112.189 12.936 110.605 13.608 109.453 14.952C108.301 16.264 107.725 18.024 107.725 20.232V22.92C107.725 25.192 108.301 26.936 109.453 28.152C110.605 29.368 112.125 29.976 114.013 29.976ZM137.461 33.72C134.293 33.72 131.813 32.696 130.021 30.648C128.261 28.6 127.381 25.672 127.381 21.864C127.381 17.864 128.261 14.76 130.021 12.552C131.781 10.344 134.325 9.24 137.653 9.24C139.605 9.24 141.157 9.48 142.309 9.96C143.493 10.44 144.469 11.24 145.237 12.36V6.84C145.237 6.072 145.109 5.528 144.853 5.208C144.597 4.888 144.101 4.728 143.365 4.728H142.549V1.224H150.181V27.864C150.181 28.568 150.293 29.064 150.517 29.352C150.741 29.608 151.157 29.736 151.765 29.736H152.725V33H146.293L145.861 29.64C144.901 31.08 143.765 32.12 142.453 32.76C141.141 33.4 139.477 33.72 137.461 33.72ZM138.613 29.976C140.661 29.976 142.261 29.32 143.413 28.008C144.565 26.664 145.141 24.872 145.141 22.632V20.184C145.141 17.848 144.581 16.056 143.461 14.808C142.373 13.56 140.821 12.936 138.805 12.936C136.533 12.936 134.885 13.64 133.861 15.048C132.869 16.456 132.373 18.712 132.373 21.816C132.373 24.76 132.853 26.856 133.813 28.104C134.773 29.352 136.373 29.976 138.613 29.976Z" fill="white"/>
<path d="M18.248 37.432L6.488 25.672H11.336L18.248 32.584L30.92 19.912L18.248 7.24L11.336 14.152H6.488L18.248 2.392L35.768 19.912L18.248 37.432ZM18.104 24.76L22.808 19.912L18.104 15.064V18.184H3.224V21.64H18.104V24.76ZM16.472 29.08V23.416H1.448V16.408H16.472V10.744L25.352 19.912L16.472 29.08Z" fill="white"/>
</g>
<defs>
<clipPath id="clip0_301_6">
<rect width="154" height="44" fill="white"/>
</clipPath>
</defs>
</svg>
